<svg xmlns="http://www.w3.org/2000/svg" width="1024" height="1024" viewBox="0 0 1024 1024">
  <defs>
    <linearGradient id="bg" x1="0" y1="0" x2="0" y2="1">
      <stop offset="0" stop-color="#433060"/>
      <stop offset="0.55" stop-color="#2c2041"/>
      <stop offset="1" stop-color="#1d1529"/>
    </linearGradient>
    <radialGradient id="glow" cx="0.5" cy="0.66" r="0.48">
      <stop offset="0" stop-color="#ff8a4a" stop-opacity="0.62"/>
      <stop offset="0.45" stop-color="#ff7a3d" stop-opacity="0.2"/>
      <stop offset="1" stop-color="#ff7a3d" stop-opacity="0"/>
    </radialGradient>
    <linearGradient id="sheen" x1="0" y1="0" x2="0" y2="1">
      <stop offset="0" stop-color="#fff" stop-opacity="0.12"/>
      <stop offset="0.2" stop-color="#fff" stop-opacity="0.05"/>
      <stop offset="0.5" stop-color="#fff" stop-opacity="0"/>
    </linearGradient>
    <linearGradient id="fo" x1="0" y1="0" x2="0" y2="1">
      <stop offset="0" stop-color="#ffbe55"/>
      <stop offset="0.55" stop-color="#f4743b"/>
      <stop offset="1" stop-color="#df4640"/>
    </linearGradient>
    <linearGradient id="fi" x1="0" y1="0" x2="0" y2="1">
      <stop offset="0" stop-color="#ffeab0"/>
      <stop offset="1" stop-color="#ffb84d"/>
    </linearGradient>
    <filter id="drop" x="-20%" y="-20%" width="140%" height="140%">
      <feDropShadow dx="0" dy="14" stdDeviation="16" flood-color="#000" flood-opacity="0.32"/>
    </filter>
    <filter id="fshadow" x="-30%" y="-30%" width="160%" height="160%">
      <feDropShadow dx="0" dy="10" stdDeviation="14" flood-color="#1a0d10" flood-opacity="0.45"/>
    </filter>
    <clipPath id="clip"><rect x="24" y="24" width="976" height="976" rx="210"/></clipPath>
    <filter id="grain" x="0" y="0" width="100%" height="100%">
      <feTurbulence type="fractalNoise" baseFrequency="0.85" numOctaves="2" seed="7" stitchTiles="stitch"/>
      <feColorMatrix type="saturate" values="0"/>
    </filter>
  </defs>
  <g >
    <rect x="24" y="24" width="976" height="976" rx="210" fill="url(#bg)"/>
  </g>
  <g clip-path="url(#clip)">
    <ellipse cx="512" cy="707.1999999999999" rx="605.12" ry="488" fill="url(#glow)"/>
    <rect x="24" y="24" width="976" height="976" fill="url(#sheen)"/>
    <rect x="24" y="24" width="976" height="976" filter="url(#grain)" opacity="0.07" style="mix-blend-mode:overlay"/>
    <path d="M765.76 194.8 C772.7872 231.6928 772.7872 231.6928 809.68 238.72 C772.7872 245.7472 772.7872 245.7472 765.76 282.64 C758.7328 245.7472 758.7328 245.7472 721.84 238.72 C758.7328 231.6928 758.7328 231.6928 765.76 194.8Z" fill="#ffe3a1" opacity="0.95"/><path d="M238.72 326.56000000000006 C243.4048 351.15520000000004 243.4048 351.15520000000004 268 355.84000000000003 C243.4048 360.5248 243.4048 360.5248 238.72 385.12 C234.0352 360.5248 234.0352 360.5248 209.44 355.84000000000003 C234.0352 351.15520000000004 234.0352 351.15520000000004 238.72 326.56000000000006Z" fill="#ffd27a" opacity="0.8"/><path d="M843.8399999999999 431.968 C847.2755199999999 450.00448 847.2755199999999 450.00448 865.3119999999999 453.44 C847.2755199999999 456.87552 847.2755199999999 456.87552 843.8399999999999 474.912 C840.4044799999999 456.87552 840.4044799999999 456.87552 822.3679999999999 453.44 C840.4044799999999 450.00448 840.4044799999999 450.00448 843.8399999999999 431.968Z" fill="#ffe3a1" opacity="0.7"/>
  </g>
  <g transform="translate(211.69230769230768 219.20000000000002) scale(6.006153846153846)" filter="url(#fshadow)">
    <path d="M50 6c4.6 10.4 13.5 17.3 21 26.2C78.4 41 83 50.4 83 63.5 83 84 68.6 99 50 99S17 84 17 63.5c0-11.6 5.4-20.4 12.6-27.8 1.2 7.3 4.6 12.3 10.2 14.6C38.3 35.7 41.6 19 50 6z" fill="url(#fo)"/>
    <path d="M50 40c3.4 7 9.4 11.4 13.6 16.8 3.2 4.1 4.9 8.4 4.9 13.6C68.5 82.7 60.4 92 50 92s-18.5-9.3-18.5-21.6c0-6.1 2.8-11 6.6-14.8.9 3.7 2.8 6.1 5.7 7.3C43.1 55.4 45.4 47 50 40z" fill="url(#fi)"/>
    <ellipse cx="41.5" cy="71" rx="3.7" ry="4.5" fill="#43201d"/>
       <ellipse cx="58.5" cy="71" rx="3.7" ry="4.5" fill="#43201d"/>
       <circle cx="42.9" cy="69.3" r="1.35" fill="#fff"/>
       <circle cx="59.9" cy="69.3" r="1.35" fill="#fff"/>
       <ellipse cx="34.3" cy="79.2" rx="4.4" ry="2.7" fill="#ff7a6b" opacity="0.5"/>
       <ellipse cx="65.7" cy="79.2" rx="4.4" ry="2.7" fill="#ff7a6b" opacity="0.5"/>
       <path d="M45 79.4q5 5.4 10 0" fill="#7a2f28" stroke="#43201d" stroke-width="2" stroke-linecap="round" stroke-linejoin="round"/>
  </g>
  <rect x="24.5" y="24.5" width="975" height="975" rx="210" fill="none" stroke="#fff" stroke-opacity="0.08" stroke-width="2"/>
</svg>